<?xml version="1.0" encoding="UTF-8" standalone="no"?><svg xmlns="http://www.w3.org/2000/svg" xmlns:xlink="http://www.w3.org/1999/xlink" contentStyleType="text/css" height="410px" preserveAspectRatio="none" style="width:1440px;height:410px;background:#FFFFFF;" version="1.1" viewBox="0 0 1440 410" width="1440px" zoomAndPan="magnify"><defs/><g><rect fill="none" height="27.6094" id="_title" style="stroke:none;stroke-width:1.0;" width="214" x="606" y="5"/><text fill="#000000" font-family="sans-serif" font-size="14" font-weight="bold" lengthAdjust="spacing" textLength="204" x="611" y="24.5332">Study Center - Domain Model</text><!--MD5=[599b346dd6cce547b90978a220dfc604]
cluster Test--><g id="cluster_Test"><path d="M8.5,44.6094 L39.5,44.6094 A3.75,3.75 0 0 1 42,47.1094 L49,68.2188 L135.5,68.2188 A2.5,2.5 0 0 1 138,70.7188 L138,290.1094 A2.5,2.5 0 0 1 135.5,292.6094 L8.5,292.6094 A2.5,2.5 0 0 1 6,290.1094 L6,47.1094 A2.5,2.5 0 0 1 8.5,44.6094 " fill="none" style="stroke:#000000;stroke-width:1.5;"/><line style="stroke:#000000;stroke-width:1.5;" x1="6" x2="49" y1="68.2188" y2="68.2188"/><text fill="#000000" font-family="sans-serif" font-size="14" font-weight="bold" lengthAdjust="spacing" textLength="30" x="10" y="61.1426">Test</text></g><!--MD5=[8f9e84a9791ee0d02160ab259f656d90]
cluster Subject--><g id="cluster_Subject"><path d="M164.5,192.6094 L218.5,192.6094 A3.75,3.75 0 0 1 221,195.1094 L228,216.2188 L1430.5,216.2188 A2.5,2.5 0 0 1 1433,218.7188 L1433,401.1094 A2.5,2.5 0 0 1 1430.5,403.6094 L164.5,403.6094 A2.5,2.5 0 0 1 162,401.1094 L162,195.1094 A2.5,2.5 0 0 1 164.5,192.6094 " fill="none" style="stroke:#000000;stroke-width:1.5;"/><line style="stroke:#000000;stroke-width:1.5;" x1="162" x2="228" y1="216.2188" y2="216.2188"/><text fill="#000000" font-family="sans-serif" font-size="14" font-weight="bold" lengthAdjust="spacing" textLength="53" x="166" y="209.1426">Subject</text></g><!--MD5=[df38be88ccee13e832d6fafd6288a4ca]
class Test--><g id="elem_Test"><rect codeLine="5" fill="#F1F1F1" height="48" id="Test" rx="2.5" ry="2.5" style="stroke:#181818;stroke-width:0.5;" width="90" x="30" y="80.6094"/><ellipse cx="45" cy="96.6094" fill="#ADD1B2" rx="11" ry="11" style="stroke:#181818;stroke-width:1.0;"/><path d="M47.7656,92.4844 Q47.9219,92.2656 48.1094,92.1563 Q48.2969,92.0469 48.5156,92.0469 Q48.8906,92.0469 49.125,92.3125 Q49.3594,92.5625 49.3594,93.1719 L49.3594,94.625 Q49.3594,95.2344 49.125,95.5 Q48.8906,95.7656 48.5156,95.7656 Q48.1719,95.7656 47.9688,95.5625 Q47.7656,95.375 47.6563,94.8594 Q47.6094,94.5 47.4219,94.3125 Q47.0938,93.9375 46.4844,93.7188 Q45.875,93.5 45.25,93.5 Q44.4844,93.5 43.8438,93.8281 Q43.2188,94.1563 42.7188,94.9063 Q42.2344,95.6563 42.2344,96.6875 L42.2344,97.7813 Q42.2344,99.0156 43.125,99.8438 Q44.0156,100.6563 45.6094,100.6563 Q46.5469,100.6563 47.2031,100.4063 Q47.5938,100.25 48.0156,99.8125 Q48.2813,99.5469 48.4219,99.4688 Q48.5781,99.3906 48.7813,99.3906 Q49.1094,99.3906 49.3594,99.6563 Q49.625,99.9063 49.625,100.25 Q49.625,100.5938 49.2813,101 Q48.7813,101.5781 47.9844,101.9063 Q46.9063,102.3594 45.6094,102.3594 Q44.0938,102.3594 42.8906,101.7344 Q41.9063,101.2344 41.2188,100.1719 Q40.5313,99.0938 40.5313,97.8125 L40.5313,96.6563 Q40.5313,95.3281 41.1406,94.1875 Q41.7656,93.0313 42.8594,92.4219 Q43.9531,91.7969 45.1875,91.7969 Q45.9219,91.7969 46.5625,91.9688 Q47.2188,92.125 47.7656,92.4844 Z " fill="#000000"/><text fill="#000000" font-family="sans-serif" font-size="14" lengthAdjust="spacing" textLength="28" x="59" y="102.3379">Test</text><rect fill="#FFFFFF" height="17.0938" style="stroke:#181818;stroke-width:1.0;stroke-dasharray:2.0,2.0;" width="28" x="95" y="77.6094"/><text fill="#000000" font-family="sans-serif" font-size="12" font-style="italic" lengthAdjust="spacing" textLength="26" x="96" y="91.0664">Root</text><line style="stroke:#181818;stroke-width:0.5;" x1="31" x2="119" y1="112.6094" y2="112.6094"/><line style="stroke:#181818;stroke-width:0.5;" x1="31" x2="119" y1="120.6094" y2="120.6094"/></g><!--MD5=[f9fadfa5a66b7e5a67b370cd443ffe52]
class Answer--><g id="elem_Answer"><rect codeLine="7" fill="#F1F1F1" height="48" id="Answer" rx="2.5" ry="2.5" style="stroke:#181818;stroke-width:0.5;" width="99" x="22.5" y="228.6094"/><ellipse cx="37.5" cy="244.6094" fill="#ADD1B2" rx="11" ry="11" style="stroke:#181818;stroke-width:1.0;"/><path d="M40.2656,240.4844 Q40.4219,240.2656 40.6094,240.1563 Q40.7969,240.0469 41.0156,240.0469 Q41.3906,240.0469 41.625,240.3125 Q41.8594,240.5625 41.8594,241.1719 L41.8594,242.625 Q41.8594,243.2344 41.625,243.5 Q41.3906,243.7656 41.0156,243.7656 Q40.6719,243.7656 40.4688,243.5625 Q40.2656,243.375 40.1563,242.8594 Q40.1094,242.5 39.9219,242.3125 Q39.5938,241.9375 38.9844,241.7188 Q38.375,241.5 37.75,241.5 Q36.9844,241.5 36.3438,241.8281 Q35.7188,242.1563 35.2188,242.9063 Q34.7344,243.6563 34.7344,244.6875 L34.7344,245.7813 Q34.7344,247.0156 35.625,247.8438 Q36.5156,248.6563 38.1094,248.6563 Q39.0469,248.6563 39.7031,248.4063 Q40.0938,248.25 40.5156,247.8125 Q40.7813,247.5469 40.9219,247.4688 Q41.0781,247.3906 41.2813,247.3906 Q41.6094,247.3906 41.8594,247.6563 Q42.125,247.9063 42.125,248.25 Q42.125,248.5938 41.7813,249 Q41.2813,249.5781 40.4844,249.9063 Q39.4063,250.3594 38.1094,250.3594 Q36.5938,250.3594 35.3906,249.7344 Q34.4063,249.2344 33.7188,248.1719 Q33.0313,247.0938 33.0313,245.8125 L33.0313,244.6563 Q33.0313,243.3281 33.6406,242.1875 Q34.2656,241.0313 35.3594,240.4219 Q36.4531,239.7969 37.6875,239.7969 Q38.4219,239.7969 39.0625,239.9688 Q39.7188,240.125 40.2656,240.4844 Z " fill="#000000"/><text fill="#000000" font-family="sans-serif" font-size="14" lengthAdjust="spacing" textLength="46" x="51.5" y="250.3379">Answer</text><rect fill="#FFFFFF" height="17.0938" style="stroke:#181818;stroke-width:1.0;stroke-dasharray:2.0,2.0;" width="19" x="105.5" y="225.6094"/><text fill="#000000" font-family="sans-serif" font-size="12" font-style="italic" lengthAdjust="spacing" textLength="17" x="106.5" y="239.0664">VO</text><line style="stroke:#181818;stroke-width:0.5;" x1="23.5" x2="120.5" y1="260.6094" y2="260.6094"/><line style="stroke:#181818;stroke-width:0.5;" x1="23.5" x2="120.5" y1="268.6094" y2="268.6094"/></g><!--MD5=[d0da0a299942266ebd64acf2b2e95fa4]
class Subject--><g id="elem_Subject"><rect codeLine="13" fill="#F1F1F1" height="48" id="Subject" rx="2.5" ry="2.5" style="stroke:#181818;stroke-width:0.5;" width="109" x="314.5" y="228.6094"/><ellipse cx="329.5" cy="244.6094" fill="#ADD1B2" rx="11" ry="11" style="stroke:#181818;stroke-width:1.0;"/><path d="M332.2656,240.4844 Q332.4219,240.2656 332.6094,240.1563 Q332.7969,240.0469 333.0156,240.0469 Q333.3906,240.0469 333.625,240.3125 Q333.8594,240.5625 333.8594,241.1719 L333.8594,242.625 Q333.8594,243.2344 333.625,243.5 Q333.3906,243.7656 333.0156,243.7656 Q332.6719,243.7656 332.4688,243.5625 Q332.2656,243.375 332.1563,242.8594 Q332.1094,242.5 331.9219,242.3125 Q331.5938,241.9375 330.9844,241.7188 Q330.375,241.5 329.75,241.5 Q328.9844,241.5 328.3438,241.8281 Q327.7188,242.1563 327.2188,242.9063 Q326.7344,243.6563 326.7344,244.6875 L326.7344,245.7813 Q326.7344,247.0156 327.625,247.8438 Q328.5156,248.6563 330.1094,248.6563 Q331.0469,248.6563 331.7031,248.4063 Q332.0938,248.25 332.5156,247.8125 Q332.7813,247.5469 332.9219,247.4688 Q333.0781,247.3906 333.2813,247.3906 Q333.6094,247.3906 333.8594,247.6563 Q334.125,247.9063 334.125,248.25 Q334.125,248.5938 333.7813,249 Q333.2813,249.5781 332.4844,249.9063 Q331.4063,250.3594 330.1094,250.3594 Q328.5938,250.3594 327.3906,249.7344 Q326.4063,249.2344 325.7188,248.1719 Q325.0313,247.0938 325.0313,245.8125 L325.0313,244.6563 Q325.0313,243.3281 325.6406,242.1875 Q326.2656,241.0313 327.3594,240.4219 Q328.4531,239.7969 329.6875,239.7969 Q330.4219,239.7969 331.0625,239.9688 Q331.7188,240.125 332.2656,240.4844 Z " fill="#000000"/><text fill="#000000" font-family="sans-serif" font-size="14" lengthAdjust="spacing" textLength="47" x="343.5" y="250.3379">Subject</text><rect fill="#FFFFFF" height="17.0938" style="stroke:#181818;stroke-width:1.0;stroke-dasharray:2.0,2.0;" width="28" x="398.5" y="225.6094"/><text fill="#000000" font-family="sans-serif" font-size="12" font-style="italic" lengthAdjust="spacing" textLength="26" x="399.5" y="239.0664">Root</text><line style="stroke:#181818;stroke-width:0.5;" x1="315.5" x2="422.5" y1="260.6094" y2="260.6094"/><line style="stroke:#181818;stroke-width:0.5;" x1="315.5" x2="422.5" y1="268.6094" y2="268.6094"/></g><!--MD5=[ba580110b1777f63e0f1dfe3fcefdac0]
class Code--><g id="elem_Code"><rect codeLine="15" fill="#F1F1F1" height="48" id="Code" rx="2.5" ry="2.5" style="stroke:#181818;stroke-width:0.5;" width="87" x="178.5" y="339.6094"/><ellipse cx="193.5" cy="355.6094" fill="#ADD1B2" rx="11" ry="11" style="stroke:#181818;stroke-width:1.0;"/><path d="M196.2656,351.4844 Q196.4219,351.2656 196.6094,351.1563 Q196.7969,351.0469 197.0156,351.0469 Q197.3906,351.0469 197.625,351.3125 Q197.8594,351.5625 197.8594,352.1719 L197.8594,353.625 Q197.8594,354.2344 197.625,354.5 Q197.3906,354.7656 197.0156,354.7656 Q196.6719,354.7656 196.4688,354.5625 Q196.2656,354.375 196.1563,353.8594 Q196.1094,353.5 195.9219,353.3125 Q195.5938,352.9375 194.9844,352.7188 Q194.375,352.5 193.75,352.5 Q192.9844,352.5 192.3438,352.8281 Q191.7188,353.1563 191.2188,353.9063 Q190.7344,354.6563 190.7344,355.6875 L190.7344,356.7813 Q190.7344,358.0156 191.625,358.8438 Q192.5156,359.6563 194.1094,359.6563 Q195.0469,359.6563 195.7031,359.4063 Q196.0938,359.25 196.5156,358.8125 Q196.7813,358.5469 196.9219,358.4688 Q197.0781,358.3906 197.2813,358.3906 Q197.6094,358.3906 197.8594,358.6563 Q198.125,358.9063 198.125,359.25 Q198.125,359.5938 197.7813,360 Q197.2813,360.5781 196.4844,360.9063 Q195.4063,361.3594 194.1094,361.3594 Q192.5938,361.3594 191.3906,360.7344 Q190.4063,360.2344 189.7188,359.1719 Q189.0313,358.0938 189.0313,356.8125 L189.0313,355.6563 Q189.0313,354.3281 189.6406,353.1875 Q190.2656,352.0313 191.3594,351.4219 Q192.4531,350.7969 193.6875,350.7969 Q194.4219,350.7969 195.0625,350.9688 Q195.7188,351.125 196.2656,351.4844 Z " fill="#000000"/><text fill="#000000" font-family="sans-serif" font-size="14" lengthAdjust="spacing" textLength="34" x="207.5" y="361.3379">Code</text><rect fill="#FFFFFF" height="17.0938" style="stroke:#181818;stroke-width:1.0;stroke-dasharray:2.0,2.0;" width="19" x="249.5" y="336.6094"/><text fill="#000000" font-family="sans-serif" font-size="12" font-style="italic" lengthAdjust="spacing" textLength="17" x="250.5" y="350.0664">VO</text><line style="stroke:#181818;stroke-width:0.5;" x1="179.5" x2="264.5" y1="371.6094" y2="371.6094"/><line style="stroke:#181818;stroke-width:0.5;" x1="179.5" x2="264.5" y1="379.6094" y2="379.6094"/></g><!--MD5=[3f6654fe77d1dbffe710548712eaf692]
class SubjectName--><g id="elem_SubjectName"><rect codeLine="16" fill="#F1F1F1" height="48" id="SubjectName" rx="2.5" ry="2.5" style="stroke:#181818;stroke-width:0.5;" width="136" x="301" y="339.6094"/><ellipse cx="316" cy="355.6094" fill="#ADD1B2" rx="11" ry="11" style="stroke:#181818;stroke-width:1.0;"/><path d="M318.7656,351.4844 Q318.9219,351.2656 319.1094,351.1563 Q319.2969,351.0469 319.5156,351.0469 Q319.8906,351.0469 320.125,351.3125 Q320.3594,351.5625 320.3594,352.1719 L320.3594,353.625 Q320.3594,354.2344 320.125,354.5 Q319.8906,354.7656 319.5156,354.7656 Q319.1719,354.7656 318.9688,354.5625 Q318.7656,354.375 318.6563,353.8594 Q318.6094,353.5 318.4219,353.3125 Q318.0938,352.9375 317.4844,352.7188 Q316.875,352.5 316.25,352.5 Q315.4844,352.5 314.8438,352.8281 Q314.2188,353.1563 313.7188,353.9063 Q313.2344,354.6563 313.2344,355.6875 L313.2344,356.7813 Q313.2344,358.0156 314.125,358.8438 Q315.0156,359.6563 316.6094,359.6563 Q317.5469,359.6563 318.2031,359.4063 Q318.5938,359.25 319.0156,358.8125 Q319.2813,358.5469 319.4219,358.4688 Q319.5781,358.3906 319.7813,358.3906 Q320.1094,358.3906 320.3594,358.6563 Q320.625,358.9063 320.625,359.25 Q320.625,359.5938 320.2813,360 Q319.7813,360.5781 318.9844,360.9063 Q317.9063,361.3594 316.6094,361.3594 Q315.0938,361.3594 313.8906,360.7344 Q312.9063,360.2344 312.2188,359.1719 Q311.5313,358.0938 311.5313,356.8125 L311.5313,355.6563 Q311.5313,354.3281 312.1406,353.1875 Q312.7656,352.0313 313.8594,351.4219 Q314.9531,350.7969 316.1875,350.7969 Q316.9219,350.7969 317.5625,350.9688 Q318.2188,351.125 318.7656,351.4844 Z " fill="#000000"/><text fill="#000000" font-family="sans-serif" font-size="14" lengthAdjust="spacing" textLength="83" x="330" y="361.3379">SubjectName</text><rect fill="#FFFFFF" height="17.0938" style="stroke:#181818;stroke-width:1.0;stroke-dasharray:2.0,2.0;" width="19" x="421" y="336.6094"/><text fill="#000000" font-family="sans-serif" font-size="12" font-style="italic" lengthAdjust="spacing" textLength="17" x="422" y="350.0664">VO</text><line style="stroke:#181818;stroke-width:0.5;" x1="302" x2="436" y1="371.6094" y2="371.6094"/><line style="stroke:#181818;stroke-width:0.5;" x1="302" x2="436" y1="379.6094" y2="379.6094"/></g><!--MD5=[6139af2131ca0440f74ac65e71f635bc]
class SubjectDescription--><g id="elem_SubjectDescription"><rect codeLine="17" fill="#F1F1F1" height="48" id="SubjectDescription" rx="2.5" ry="2.5" style="stroke:#181818;stroke-width:0.5;" width="171" x="472.5" y="339.6094"/><ellipse cx="487.5" cy="355.6094" fill="#ADD1B2" rx="11" ry="11" style="stroke:#181818;stroke-width:1.0;"/><path d="M490.2656,351.4844 Q490.4219,351.2656 490.6094,351.1563 Q490.7969,351.0469 491.0156,351.0469 Q491.3906,351.0469 491.625,351.3125 Q491.8594,351.5625 491.8594,352.1719 L491.8594,353.625 Q491.8594,354.2344 491.625,354.5 Q491.3906,354.7656 491.0156,354.7656 Q490.6719,354.7656 490.4688,354.5625 Q490.2656,354.375 490.1563,353.8594 Q490.1094,353.5 489.9219,353.3125 Q489.5938,352.9375 488.9844,352.7188 Q488.375,352.5 487.75,352.5 Q486.9844,352.5 486.3438,352.8281 Q485.7188,353.1563 485.2188,353.9063 Q484.7344,354.6563 484.7344,355.6875 L484.7344,356.7813 Q484.7344,358.0156 485.625,358.8438 Q486.5156,359.6563 488.1094,359.6563 Q489.0469,359.6563 489.7031,359.4063 Q490.0938,359.25 490.5156,358.8125 Q490.7813,358.5469 490.9219,358.4688 Q491.0781,358.3906 491.2813,358.3906 Q491.6094,358.3906 491.8594,358.6563 Q492.125,358.9063 492.125,359.25 Q492.125,359.5938 491.7813,360 Q491.2813,360.5781 490.4844,360.9063 Q489.4063,361.3594 488.1094,361.3594 Q486.5938,361.3594 485.3906,360.7344 Q484.4063,360.2344 483.7188,359.1719 Q483.0313,358.0938 483.0313,356.8125 L483.0313,355.6563 Q483.0313,354.3281 483.6406,353.1875 Q484.2656,352.0313 485.3594,351.4219 Q486.4531,350.7969 487.6875,350.7969 Q488.4219,350.7969 489.0625,350.9688 Q489.7188,351.125 490.2656,351.4844 Z " fill="#000000"/><text fill="#000000" font-family="sans-serif" font-size="14" lengthAdjust="spacing" textLength="118" x="501.5" y="361.3379">SubjectDescription</text><rect fill="#FFFFFF" height="17.0938" style="stroke:#181818;stroke-width:1.0;stroke-dasharray:2.0,2.0;" width="19" x="627.5" y="336.6094"/><text fill="#000000" font-family="sans-serif" font-size="12" font-style="italic" lengthAdjust="spacing" textLength="17" x="628.5" y="350.0664">VO</text><line style="stroke:#181818;stroke-width:0.5;" x1="473.5" x2="642.5" y1="371.6094" y2="371.6094"/><line style="stroke:#181818;stroke-width:0.5;" x1="473.5" x2="642.5" y1="379.6094" y2="379.6094"/></g><!--MD5=[a96594a83e2ecdc78cbf17c2ddf01934]
class Category--><g id="elem_Category"><rect codeLine="23" fill="#F1F1F1" height="48" id="Category" rx="2.5" ry="2.5" style="stroke:#181818;stroke-width:0.5;" width="124" x="784" y="228.6094"/><ellipse cx="799" cy="244.6094" fill="#ADD1B2" rx="11" ry="11" style="stroke:#181818;stroke-width:1.0;"/><path d="M801.7656,240.4844 Q801.9219,240.2656 802.1094,240.1563 Q802.2969,240.0469 802.5156,240.0469 Q802.8906,240.0469 803.125,240.3125 Q803.3594,240.5625 803.3594,241.1719 L803.3594,242.625 Q803.3594,243.2344 803.125,243.5 Q802.8906,243.7656 802.5156,243.7656 Q802.1719,243.7656 801.9688,243.5625 Q801.7656,243.375 801.6563,242.8594 Q801.6094,242.5 801.4219,242.3125 Q801.0938,241.9375 800.4844,241.7188 Q799.875,241.5 799.25,241.5 Q798.4844,241.5 797.8438,241.8281 Q797.2188,242.1563 796.7188,242.9063 Q796.2344,243.6563 796.2344,244.6875 L796.2344,245.7813 Q796.2344,247.0156 797.125,247.8438 Q798.0156,248.6563 799.6094,248.6563 Q800.5469,248.6563 801.2031,248.4063 Q801.5938,248.25 802.0156,247.8125 Q802.2813,247.5469 802.4219,247.4688 Q802.5781,247.3906 802.7813,247.3906 Q803.1094,247.3906 803.3594,247.6563 Q803.625,247.9063 803.625,248.25 Q803.625,248.5938 803.2813,249 Q802.7813,249.5781 801.9844,249.9063 Q800.9063,250.3594 799.6094,250.3594 Q798.0938,250.3594 796.8906,249.7344 Q795.9063,249.2344 795.2188,248.1719 Q794.5313,247.0938 794.5313,245.8125 L794.5313,244.6563 Q794.5313,243.3281 795.1406,242.1875 Q795.7656,241.0313 796.8594,240.4219 Q797.9531,239.7969 799.1875,239.7969 Q799.9219,239.7969 800.5625,239.9688 Q801.2188,240.125 801.7656,240.4844 Z " fill="#000000"/><text fill="#000000" font-family="sans-serif" font-size="14" lengthAdjust="spacing" textLength="58" x="813" y="250.3379">Category</text><rect fill="#FFFFFF" height="17.0938" style="stroke:#181818;stroke-width:1.0;stroke-dasharray:2.0,2.0;" width="32" x="879" y="225.6094"/><text fill="#000000" font-family="sans-serif" font-size="12" font-style="italic" lengthAdjust="spacing" textLength="30" x="880" y="239.0664">Entity</text><line style="stroke:#181818;stroke-width:0.5;" x1="785" x2="907" y1="260.6094" y2="260.6094"/><line style="stroke:#181818;stroke-width:0.5;" x1="785" x2="907" y1="268.6094" y2="268.6094"/></g><!--MD5=[7f82b75b3e2ff5f152262860eedc311f]
class CategoryName--><g id="elem_CategoryName"><rect codeLine="24" fill="#F1F1F1" height="48" id="CategoryName" rx="2.5" ry="2.5" style="stroke:#181818;stroke-width:0.5;" width="147" x="896.5" y="339.6094"/><ellipse cx="911.5" cy="355.6094" fill="#ADD1B2" rx="11" ry="11" style="stroke:#181818;stroke-width:1.0;"/><path d="M914.2656,351.4844 Q914.4219,351.2656 914.6094,351.1563 Q914.7969,351.0469 915.0156,351.0469 Q915.3906,351.0469 915.625,351.3125 Q915.8594,351.5625 915.8594,352.1719 L915.8594,353.625 Q915.8594,354.2344 915.625,354.5 Q915.3906,354.7656 915.0156,354.7656 Q914.6719,354.7656 914.4688,354.5625 Q914.2656,354.375 914.1563,353.8594 Q914.1094,353.5 913.9219,353.3125 Q913.5938,352.9375 912.9844,352.7188 Q912.375,352.5 911.75,352.5 Q910.9844,352.5 910.3438,352.8281 Q909.7188,353.1563 909.2188,353.9063 Q908.7344,354.6563 908.7344,355.6875 L908.7344,356.7813 Q908.7344,358.0156 909.625,358.8438 Q910.5156,359.6563 912.1094,359.6563 Q913.0469,359.6563 913.7031,359.4063 Q914.0938,359.25 914.5156,358.8125 Q914.7813,358.5469 914.9219,358.4688 Q915.0781,358.3906 915.2813,358.3906 Q915.6094,358.3906 915.8594,358.6563 Q916.125,358.9063 916.125,359.25 Q916.125,359.5938 915.7813,360 Q915.2813,360.5781 914.4844,360.9063 Q913.4063,361.3594 912.1094,361.3594 Q910.5938,361.3594 909.3906,360.7344 Q908.4063,360.2344 907.7188,359.1719 Q907.0313,358.0938 907.0313,356.8125 L907.0313,355.6563 Q907.0313,354.3281 907.6406,353.1875 Q908.2656,352.0313 909.3594,351.4219 Q910.4531,350.7969 911.6875,350.7969 Q912.4219,350.7969 913.0625,350.9688 Q913.7188,351.125 914.2656,351.4844 Z " fill="#000000"/><text fill="#000000" font-family="sans-serif" font-size="14" lengthAdjust="spacing" textLength="94" x="925.5" y="361.3379">CategoryName</text><rect fill="#FFFFFF" height="17.0938" style="stroke:#181818;stroke-width:1.0;stroke-dasharray:2.0,2.0;" width="19" x="1027.5" y="336.6094"/><text fill="#000000" font-family="sans-serif" font-size="12" font-style="italic" lengthAdjust="spacing" textLength="17" x="1028.5" y="350.0664">VO</text><line style="stroke:#181818;stroke-width:0.5;" x1="897.5" x2="1042.5" y1="371.6094" y2="371.6094"/><line style="stroke:#181818;stroke-width:0.5;" x1="897.5" x2="1042.5" y1="379.6094" y2="379.6094"/></g><!--MD5=[74c3bbbc98a1c7d6da2b4e0619399784]
class CategoryDescription--><g id="elem_CategoryDescription"><rect codeLine="25" fill="#F1F1F1" height="48" id="CategoryDescription" rx="2.5" ry="2.5" style="stroke:#181818;stroke-width:0.5;" width="182" x="679" y="339.6094"/><ellipse cx="694" cy="355.6094" fill="#ADD1B2" rx="11" ry="11" style="stroke:#181818;stroke-width:1.0;"/><path d="M696.7656,351.4844 Q696.9219,351.2656 697.1094,351.1563 Q697.2969,351.0469 697.5156,351.0469 Q697.8906,351.0469 698.125,351.3125 Q698.3594,351.5625 698.3594,352.1719 L698.3594,353.625 Q698.3594,354.2344 698.125,354.5 Q697.8906,354.7656 697.5156,354.7656 Q697.1719,354.7656 696.9688,354.5625 Q696.7656,354.375 696.6563,353.8594 Q696.6094,353.5 696.4219,353.3125 Q696.0938,352.9375 695.4844,352.7188 Q694.875,352.5 694.25,352.5 Q693.4844,352.5 692.8438,352.8281 Q692.2188,353.1563 691.7188,353.9063 Q691.2344,354.6563 691.2344,355.6875 L691.2344,356.7813 Q691.2344,358.0156 692.125,358.8438 Q693.0156,359.6563 694.6094,359.6563 Q695.5469,359.6563 696.2031,359.4063 Q696.5938,359.25 697.0156,358.8125 Q697.2813,358.5469 697.4219,358.4688 Q697.5781,358.3906 697.7813,358.3906 Q698.1094,358.3906 698.3594,358.6563 Q698.625,358.9063 698.625,359.25 Q698.625,359.5938 698.2813,360 Q697.7813,360.5781 696.9844,360.9063 Q695.9063,361.3594 694.6094,361.3594 Q693.0938,361.3594 691.8906,360.7344 Q690.9063,360.2344 690.2188,359.1719 Q689.5313,358.0938 689.5313,356.8125 L689.5313,355.6563 Q689.5313,354.3281 690.1406,353.1875 Q690.7656,352.0313 691.8594,351.4219 Q692.9531,350.7969 694.1875,350.7969 Q694.9219,350.7969 695.5625,350.9688 Q696.2188,351.125 696.7656,351.4844 Z " fill="#000000"/><text fill="#000000" font-family="sans-serif" font-size="14" lengthAdjust="spacing" textLength="129" x="708" y="361.3379">CategoryDescription</text><rect fill="#FFFFFF" height="17.0938" style="stroke:#181818;stroke-width:1.0;stroke-dasharray:2.0,2.0;" width="19" x="845" y="336.6094"/><text fill="#000000" font-family="sans-serif" font-size="12" font-style="italic" lengthAdjust="spacing" textLength="17" x="846" y="350.0664">VO</text><line style="stroke:#181818;stroke-width:0.5;" x1="680" x2="860" y1="371.6094" y2="371.6094"/><line style="stroke:#181818;stroke-width:0.5;" x1="680" x2="860" y1="379.6094" y2="379.6094"/></g><!--MD5=[fc7123defb831ecdd44b2d9bcef6cceb]
class Question--><g id="elem_Question"><rect codeLine="30" fill="#F1F1F1" height="48" id="Question" rx="2.5" ry="2.5" style="stroke:#181818;stroke-width:0.5;" width="127" x="1118.5" y="228.6094"/><ellipse cx="1133.5" cy="244.6094" fill="#ADD1B2" rx="11" ry="11" style="stroke:#181818;stroke-width:1.0;"/><path d="M1136.2656,240.4844 Q1136.4219,240.2656 1136.6094,240.1563 Q1136.7969,240.0469 1137.0156,240.0469 Q1137.3906,240.0469 1137.625,240.3125 Q1137.8594,240.5625 1137.8594,241.1719 L1137.8594,242.625 Q1137.8594,243.2344 1137.625,243.5 Q1137.3906,243.7656 1137.0156,243.7656 Q1136.6719,243.7656 1136.4688,243.5625 Q1136.2656,243.375 1136.1563,242.8594 Q1136.1094,242.5 1135.9219,242.3125 Q1135.5938,241.9375 1134.9844,241.7188 Q1134.375,241.5 1133.75,241.5 Q1132.9844,241.5 1132.3438,241.8281 Q1131.7188,242.1563 1131.2188,242.9063 Q1130.7344,243.6563 1130.7344,244.6875 L1130.7344,245.7813 Q1130.7344,247.0156 1131.625,247.8438 Q1132.5156,248.6563 1134.1094,248.6563 Q1135.0469,248.6563 1135.7031,248.4063 Q1136.0938,248.25 1136.5156,247.8125 Q1136.7813,247.5469 1136.9219,247.4688 Q1137.0781,247.3906 1137.2813,247.3906 Q1137.6094,247.3906 1137.8594,247.6563 Q1138.125,247.9063 1138.125,248.25 Q1138.125,248.5938 1137.7813,249 Q1137.2813,249.5781 1136.4844,249.9063 Q1135.4063,250.3594 1134.1094,250.3594 Q1132.5938,250.3594 1131.3906,249.7344 Q1130.4063,249.2344 1129.7188,248.1719 Q1129.0313,247.0938 1129.0313,245.8125 L1129.0313,244.6563 Q1129.0313,243.3281 1129.6406,242.1875 Q1130.2656,241.0313 1131.3594,240.4219 Q1132.4531,239.7969 1133.6875,239.7969 Q1134.4219,239.7969 1135.0625,239.9688 Q1135.7188,240.125 1136.2656,240.4844 Z " fill="#000000"/><text fill="#000000" font-family="sans-serif" font-size="14" lengthAdjust="spacing" textLength="57" x="1147.5" y="250.3379">Question</text><rect fill="#FFFFFF" height="17.0938" style="stroke:#181818;stroke-width:1.0;stroke-dasharray:2.0,2.0;" width="36" x="1212.5" y="225.6094"/><text fill="#000000" font-family="sans-serif" font-size="12" font-style="italic" lengthAdjust="spacing" textLength="34" x="1213.5" y="239.0664">Entoty</text><line style="stroke:#181818;stroke-width:0.5;" x1="1119.5" x2="1244.5" y1="260.6094" y2="260.6094"/><line style="stroke:#181818;stroke-width:0.5;" x1="1119.5" x2="1244.5" y1="268.6094" y2="268.6094"/></g><!--MD5=[435987a092acd998883c72f97c5c9408]
class Number--><g id="elem_Number"><rect codeLine="32" fill="#F1F1F1" height="48" id="Number" rx="2.5" ry="2.5" style="stroke:#181818;stroke-width:0.5;" width="102" x="1194" y="339.6094"/><ellipse cx="1209" cy="355.6094" fill="#ADD1B2" rx="11" ry="11" style="stroke:#181818;stroke-width:1.0;"/><path d="M1211.7656,351.4844 Q1211.9219,351.2656 1212.1094,351.1563 Q1212.2969,351.0469 1212.5156,351.0469 Q1212.8906,351.0469 1213.125,351.3125 Q1213.3594,351.5625 1213.3594,352.1719 L1213.3594,353.625 Q1213.3594,354.2344 1213.125,354.5 Q1212.8906,354.7656 1212.5156,354.7656 Q1212.1719,354.7656 1211.9688,354.5625 Q1211.7656,354.375 1211.6563,353.8594 Q1211.6094,353.5 1211.4219,353.3125 Q1211.0938,352.9375 1210.4844,352.7188 Q1209.875,352.5 1209.25,352.5 Q1208.4844,352.5 1207.8438,352.8281 Q1207.2188,353.1563 1206.7188,353.9063 Q1206.2344,354.6563 1206.2344,355.6875 L1206.2344,356.7813 Q1206.2344,358.0156 1207.125,358.8438 Q1208.0156,359.6563 1209.6094,359.6563 Q1210.5469,359.6563 1211.2031,359.4063 Q1211.5938,359.25 1212.0156,358.8125 Q1212.2813,358.5469 1212.4219,358.4688 Q1212.5781,358.3906 1212.7813,358.3906 Q1213.1094,358.3906 1213.3594,358.6563 Q1213.625,358.9063 1213.625,359.25 Q1213.625,359.5938 1213.2813,360 Q1212.7813,360.5781 1211.9844,360.9063 Q1210.9063,361.3594 1209.6094,361.3594 Q1208.0938,361.3594 1206.8906,360.7344 Q1205.9063,360.2344 1205.2188,359.1719 Q1204.5313,358.0938 1204.5313,356.8125 L1204.5313,355.6563 Q1204.5313,354.3281 1205.1406,353.1875 Q1205.7656,352.0313 1206.8594,351.4219 Q1207.9531,350.7969 1209.1875,350.7969 Q1209.9219,350.7969 1210.5625,350.9688 Q1211.2188,351.125 1211.7656,351.4844 Z " fill="#000000"/><text fill="#000000" font-family="sans-serif" font-size="14" lengthAdjust="spacing" textLength="49" x="1223" y="361.3379">Number</text><rect fill="#FFFFFF" height="17.0938" style="stroke:#181818;stroke-width:1.0;stroke-dasharray:2.0,2.0;" width="19" x="1280" y="336.6094"/><text fill="#000000" font-family="sans-serif" font-size="12" font-style="italic" lengthAdjust="spacing" textLength="17" x="1281" y="350.0664">VO</text><line style="stroke:#181818;stroke-width:0.5;" x1="1195" x2="1295" y1="371.6094" y2="371.6094"/><line style="stroke:#181818;stroke-width:0.5;" x1="1195" x2="1295" y1="379.6094" y2="379.6094"/></g><!--MD5=[4296a1ab0576a383a1a509d52c22ebf0]
class Type--><g id="elem_Type"><rect codeLine="33" fill="#F1F1F1" height="48" id="Type" rx="2.5" ry="2.5" style="stroke:#181818;stroke-width:0.5;" width="85" x="1331.5" y="339.6094"/><ellipse cx="1346.5" cy="355.6094" fill="#ADD1B2" rx="11" ry="11" style="stroke:#181818;stroke-width:1.0;"/><path d="M1349.2656,351.4844 Q1349.4219,351.2656 1349.6094,351.1563 Q1349.7969,351.0469 1350.0156,351.0469 Q1350.3906,351.0469 1350.625,351.3125 Q1350.8594,351.5625 1350.8594,352.1719 L1350.8594,353.625 Q1350.8594,354.2344 1350.625,354.5 Q1350.3906,354.7656 1350.0156,354.7656 Q1349.6719,354.7656 1349.4688,354.5625 Q1349.2656,354.375 1349.1563,353.8594 Q1349.1094,353.5 1348.9219,353.3125 Q1348.5938,352.9375 1347.9844,352.7188 Q1347.375,352.5 1346.75,352.5 Q1345.9844,352.5 1345.3438,352.8281 Q1344.7188,353.1563 1344.2188,353.9063 Q1343.7344,354.6563 1343.7344,355.6875 L1343.7344,356.7813 Q1343.7344,358.0156 1344.625,358.8438 Q1345.5156,359.6563 1347.1094,359.6563 Q1348.0469,359.6563 1348.7031,359.4063 Q1349.0938,359.25 1349.5156,358.8125 Q1349.7813,358.5469 1349.9219,358.4688 Q1350.0781,358.3906 1350.2813,358.3906 Q1350.6094,358.3906 1350.8594,358.6563 Q1351.125,358.9063 1351.125,359.25 Q1351.125,359.5938 1350.7813,360 Q1350.2813,360.5781 1349.4844,360.9063 Q1348.4063,361.3594 1347.1094,361.3594 Q1345.5938,361.3594 1344.3906,360.7344 Q1343.4063,360.2344 1342.7188,359.1719 Q1342.0313,358.0938 1342.0313,356.8125 L1342.0313,355.6563 Q1342.0313,354.3281 1342.6406,353.1875 Q1343.2656,352.0313 1344.3594,351.4219 Q1345.4531,350.7969 1346.6875,350.7969 Q1347.4219,350.7969 1348.0625,350.9688 Q1348.7188,351.125 1349.2656,351.4844 Z " fill="#000000"/><text fill="#000000" font-family="sans-serif" font-size="14" lengthAdjust="spacing" textLength="32" x="1360.5" y="361.3379">Type</text><rect fill="#FFFFFF" height="17.0938" style="stroke:#181818;stroke-width:1.0;stroke-dasharray:2.0,2.0;" width="19" x="1400.5" y="336.6094"/><text fill="#000000" font-family="sans-serif" font-size="12" font-style="italic" lengthAdjust="spacing" textLength="17" x="1401.5" y="350.0664">VO</text><line style="stroke:#181818;stroke-width:0.5;" x1="1332.5" x2="1415.5" y1="371.6094" y2="371.6094"/><line style="stroke:#181818;stroke-width:0.5;" x1="1332.5" x2="1415.5" y1="379.6094" y2="379.6094"/></g><!--MD5=[02a8746eb15ecbb4566dafa16ea4db73]
class Text--><g id="elem_Text"><rect codeLine="34" fill="#F1F1F1" height="48" id="Text" rx="2.5" ry="2.5" style="stroke:#181818;stroke-width:0.5;" width="80" x="1079" y="339.6094"/><ellipse cx="1094" cy="355.6094" fill="#ADD1B2" rx="11" ry="11" style="stroke:#181818;stroke-width:1.0;"/><path d="M1096.7656,351.4844 Q1096.9219,351.2656 1097.1094,351.1563 Q1097.2969,351.0469 1097.5156,351.0469 Q1097.8906,351.0469 1098.125,351.3125 Q1098.3594,351.5625 1098.3594,352.1719 L1098.3594,353.625 Q1098.3594,354.2344 1098.125,354.5 Q1097.8906,354.7656 1097.5156,354.7656 Q1097.1719,354.7656 1096.9688,354.5625 Q1096.7656,354.375 1096.6563,353.8594 Q1096.6094,353.5 1096.4219,353.3125 Q1096.0938,352.9375 1095.4844,352.7188 Q1094.875,352.5 1094.25,352.5 Q1093.4844,352.5 1092.8438,352.8281 Q1092.2188,353.1563 1091.7188,353.9063 Q1091.2344,354.6563 1091.2344,355.6875 L1091.2344,356.7813 Q1091.2344,358.0156 1092.125,358.8438 Q1093.0156,359.6563 1094.6094,359.6563 Q1095.5469,359.6563 1096.2031,359.4063 Q1096.5938,359.25 1097.0156,358.8125 Q1097.2813,358.5469 1097.4219,358.4688 Q1097.5781,358.3906 1097.7813,358.3906 Q1098.1094,358.3906 1098.3594,358.6563 Q1098.625,358.9063 1098.625,359.25 Q1098.625,359.5938 1098.2813,360 Q1097.7813,360.5781 1096.9844,360.9063 Q1095.9063,361.3594 1094.6094,361.3594 Q1093.0938,361.3594 1091.8906,360.7344 Q1090.9063,360.2344 1090.2188,359.1719 Q1089.5313,358.0938 1089.5313,356.8125 L1089.5313,355.6563 Q1089.5313,354.3281 1090.1406,353.1875 Q1090.7656,352.0313 1091.8594,351.4219 Q1092.9531,350.7969 1094.1875,350.7969 Q1094.9219,350.7969 1095.5625,350.9688 Q1096.2188,351.125 1096.7656,351.4844 Z " fill="#000000"/><text fill="#000000" font-family="sans-serif" font-size="14" lengthAdjust="spacing" textLength="27" x="1108" y="361.3379">Text</text><rect fill="#FFFFFF" height="17.0938" style="stroke:#181818;stroke-width:1.0;stroke-dasharray:2.0,2.0;" width="19" x="1143" y="336.6094"/><text fill="#000000" font-family="sans-serif" font-size="12" font-style="italic" lengthAdjust="spacing" textLength="17" x="1144" y="350.0664">VO</text><line style="stroke:#181818;stroke-width:0.5;" x1="1080" x2="1158" y1="371.6094" y2="371.6094"/><line style="stroke:#181818;stroke-width:0.5;" x1="1080" x2="1158" y1="379.6094" y2="379.6094"/></g><!--MD5=[0ee2769f144fedc75807df5efceae857]
link Test to Answer--><g id="link_Test_Answer"><path codeLine="9" d="M74.52,128.7394 C73.96,156.0794 73.03,201.2894 72.47,228.5794 " fill="none" id="Test-Answer" style="stroke:#181818;stroke-width:1.0;"/><text fill="#000000" font-family="sans-serif" font-size="13" lengthAdjust="spacing" textLength="7" x="66.5499" y="150.109">1</text><text fill="#000000" font-family="sans-serif" font-size="13" lengthAdjust="spacing" textLength="5" x="66.9498" y="217.9118">*</text></g><!--MD5=[d7e3aa0ee23886a552861672cc2ae6d9]
link Subject to Code--><g id="link_Subject_Code"><path codeLine="19" d="M337.83,276.7294 C312.88,295.2194 278.06,321.0394 253.13,339.5294 " fill="none" id="Subject-Code" style="stroke:#181818;stroke-width:1.0;"/><text fill="#000000" font-family="sans-serif" font-size="13" lengthAdjust="spacing" textLength="7" x="322.3792" y="298.0966">1</text><text fill="#000000" font-family="sans-serif" font-size="13" lengthAdjust="spacing" textLength="7" x="253.2102" y="328.849">1</text></g><!--MD5=[3b4ee2ce5d6c84db37e0bdef9155c3f0]
link Subject to SubjectName--><g id="link_Subject_SubjectName"><path codeLine="20" d="M369,276.7294 C369,295.2194 369,321.0394 369,339.5294 " fill="none" id="Subject-SubjectName" style="stroke:#181818;stroke-width:1.0;"/><text fill="#000000" font-family="sans-serif" font-size="13" lengthAdjust="spacing" textLength="7" x="361.1469" y="298.0966">1</text><text fill="#000000" font-family="sans-serif" font-size="13" lengthAdjust="spacing" textLength="7" x="361.1031" y="328.849">1</text></g><!--MD5=[221a5467e6b68030bda9c6a4142807a0]
link Subject to SubjectDescription--><g id="link_Subject_SubjectDescription"><path codeLine="21" d="M409.08,276.7294 C441.16,295.2194 485.92,321.0394 517.98,339.5294 " fill="none" id="Subject-SubjectDescription" style="stroke:#181818;stroke-width:1.0;"/><text fill="#000000" font-family="sans-serif" font-size="13" lengthAdjust="spacing" textLength="7" x="410.9964" y="298.0966">1</text><text fill="#000000" font-family="sans-serif" font-size="13" lengthAdjust="spacing" textLength="7" x="499.828" y="328.849">1</text></g><!--MD5=[339b71a861716a22bdac614f94f4731a]
link Category to CategoryName--><g id="link_Category_CategoryName"><path codeLine="27" d="M872.3,276.7294 C893.34,295.2194 922.71,321.0394 943.74,339.5294 " fill="none" id="Category-CategoryName" style="stroke:#181818;stroke-width:1.0;"/><text fill="#000000" font-family="sans-serif" font-size="13" lengthAdjust="spacing" textLength="7" x="870.8575" y="298.0966">1</text><text fill="#000000" font-family="sans-serif" font-size="13" lengthAdjust="spacing" textLength="7" x="929.114" y="328.849">1</text></g><!--MD5=[308b781f5c16e3905781d51317e758af]
link Category to CategoryDescription--><g id="link_Category_CategoryDescription"><path codeLine="28" d="M829.88,276.7294 C816.98,295.2194 798.99,321.0394 786.09,339.5294 " fill="none" id="Category-CategoryDescription" style="stroke:#181818;stroke-width:1.0;"/><text fill="#000000" font-family="sans-serif" font-size="13" lengthAdjust="spacing" textLength="7" x="818.0976" y="298.0966">1</text><text fill="#000000" font-family="sans-serif" font-size="13" lengthAdjust="spacing" textLength="7" x="782.3162" y="328.849">1</text></g><!--MD5=[70a6f0e74d6df220c8f5d53a04a8f058]
link Question to Number--><g id="link_Question_Number"><path codeLine="36" d="M1195.36,276.7294 C1206.05,295.2194 1220.97,321.0394 1231.66,339.5294 " fill="none" id="Question-Number" style="stroke:#181818;stroke-width:1.0;"/><text fill="#000000" font-family="sans-serif" font-size="13" lengthAdjust="spacing" textLength="7" x="1190.7634" y="298.0966">1</text><text fill="#000000" font-family="sans-serif" font-size="13" lengthAdjust="spacing" textLength="7" x="1220.3448" y="328.849">1</text></g><!--MD5=[c2b4ddaad4917668aa8bd2602fd6838e]
link Question to Text--><g id="link_Question_Text"><path codeLine="37" d="M1168.64,276.7294 C1157.95,295.2194 1143.03,321.0394 1132.34,339.5294 " fill="none" id="Question-Text" style="stroke:#181818;stroke-width:1.0;"/><text fill="#000000" font-family="sans-serif" font-size="13" lengthAdjust="spacing" textLength="7" x="1157.5304" y="298.0966">1</text><text fill="#000000" font-family="sans-serif" font-size="13" lengthAdjust="spacing" textLength="7" x="1127.8615" y="328.849">1</text></g><!--MD5=[e0fffaa13fbd595c085593598a8eda75]
link Question to Type--><g id="link_Question_Type"><path codeLine="38" d="M1222.72,276.7294 C1255.3,295.2194 1300.77,321.0394 1333.34,339.5294 " fill="none" id="Question-Type" style="stroke:#181818;stroke-width:1.0;"/><text fill="#000000" font-family="sans-serif" font-size="13" lengthAdjust="spacing" textLength="7" x="1224.7924" y="298.0966">1</text><text fill="#000000" font-family="sans-serif" font-size="13" lengthAdjust="spacing" textLength="7" x="1316.68" y="330.0454">1</text></g><!--MD5=[a664183d67e688f54988404f94273920]
link Subject to Category--><g id="link_Subject_Category"><path codeLine="43" d="M423.72,252.6094 C513.04,252.6094 689.62,252.6094 783.65,252.6094 " fill="none" id="Subject-Category" style="stroke:#181818;stroke-width:1.0;"/><polygon fill="#000000" points="576.25,240.7852,567.2049,237.8462,567.2049,243.7241,576.25,240.7852" style="stroke:#000000;stroke-width:1.0;"/><text fill="#000000" font-family="sans-serif" font-size="13" lengthAdjust="spacing" textLength="60" x="580.25" y="246.1045">addresses</text><text fill="#000000" font-family="sans-serif" font-size="13" lengthAdjust="spacing" textLength="7" x="431.5433" y="249.0531">1</text><text fill="#000000" font-family="sans-serif" font-size="13" lengthAdjust="spacing" textLength="5" x="771.1517" y="249.1998">*</text></g><!--MD5=[1a1b676d11de0d3c9f1436eb98d48270]
link Category to Question--><g id="link_Category_Question"><path codeLine="45" d="M908.02,252.6094 C967.84,252.6094 1057.97,252.6094 1118.34,252.6094 " fill="none" id="Category-Question" style="stroke:#181818;stroke-width:1.0;"/><polygon fill="#000000" points="991.25,240.7852,982.2049,237.8462,982.2049,243.7241,991.25,240.7852" style="stroke:#000000;stroke-width:1.0;"/><text fill="#000000" font-family="sans-serif" font-size="13" lengthAdjust="spacing" textLength="49" x="995.25" y="246.1045">contains</text><text fill="#000000" font-family="sans-serif" font-size="13" lengthAdjust="spacing" textLength="7" x="916.0052" y="249.1509">1</text><text fill="#000000" font-family="sans-serif" font-size="13" lengthAdjust="spacing" textLength="5" x="1105.6902" y="249.1998">*</text></g><!--MD5=[3f4bbcb7bdd768625255400fa2143bca]
link Test to Subject--><g id="link_Test_Subject"><path codeLine="47" d="M120.29,128.0994 C175.22,155.3794 267.3,201.1094 322.68,228.6094 " fill="none" id="Test-Subject" style="stroke:#181818;stroke-width:1.0;"/><polygon fill="#000000" points="213.5218,165.5612,220.3157,172.2166,222.9301,166.9521,213.5218,165.5612" style="stroke:#000000;stroke-width:1.0;"/><text fill="#000000" font-family="sans-serif" font-size="13" lengthAdjust="spacing" textLength="43" x="227" y="173.1045">creates</text><text fill="#000000" font-family="sans-serif" font-size="13" lengthAdjust="spacing" textLength="5" x="126.7898" y="150.1047">*</text><text fill="#000000" font-family="sans-serif" font-size="13" lengthAdjust="spacing" textLength="7" x="302.9136" y="217.9495">1</text></g><!--MD5=[36fa4051d6083994560a49cc4b5520f9]
@startuml

title "Study Center - Domain Model"

package Test{
    class Test <Root>

    class Answer<VO>

    Test "1" - - "*" Answer
}

package Subject{
    class Subject <Root>

    class Code <VO>
    class SubjectName <VO>
    class SubjectDescription <VO>

    Subject "1" - - "1" Code
    Subject "1" - - "1" SubjectName
    Subject "1" - - "1" SubjectDescription

    class Category <Entity>
    class CategoryName <VO>
    class CategoryDescription <VO>

    Category "1" - - "1" CategoryName
    Category "1" - - "1" CategoryDescription

    class Question <Entoty>

    class Number <VO> 
    class Type <VO>
    class Text <VO>

    Question "1" - - "1" Number
    Question "1" - - "1" Text
    Question "1" - - "1" Type
}

'Relationships

Subject "1" -r- "*" Category: > addresses

Category "1" -r- "*" Question: > contains

Test "*" - - "1" Subject: < creates

@enduml

@startuml

title "Study Center - Domain Model"

package Test{
    class Test <Root>

    class Answer<VO>

    Test "1" - - "*" Answer
}

package Subject{
    class Subject <Root>

    class Code <VO>
    class SubjectName <VO>
    class SubjectDescription <VO>

    Subject "1" - - "1" Code
    Subject "1" - - "1" SubjectName
    Subject "1" - - "1" SubjectDescription

    class Category <Entity>
    class CategoryName <VO>
    class CategoryDescription <VO>

    Category "1" - - "1" CategoryName
    Category "1" - - "1" CategoryDescription

    class Question <Entoty>

    class Number <VO> 
    class Type <VO>
    class Text <VO>

    Question "1" - - "1" Number
    Question "1" - - "1" Text
    Question "1" - - "1" Type
}


Subject "1" -r- "*" Category: > addresses

Category "1" -r- "*" Question: > contains

Test "*" - - "1" Subject: < creates

@enduml

PlantUML version 1.2022.7(Mon Aug 22 18:01:30 WEST 2022)
(GPL source distribution)
Java Runtime: Java(TM) SE Runtime Environment
JVM: Java HotSpot(TM) 64-Bit Server VM
Default Encoding: UTF-8
Language: pt
Country: PT
--></g></svg>