<?xml version="1.0" encoding="UTF-8" standalone="no"?><svg xmlns="http://www.w3.org/2000/svg" xmlns:xlink="http://www.w3.org/1999/xlink" contentStyleType="text/css" height="619px" preserveAspectRatio="none" style="width:236px;height:619px;background:#FFFFFF;" version="1.1" viewBox="0 0 236 619" width="236px" zoomAndPan="magnify"><defs/><g><rect fill="none" height="27.6094" id="_title" style="stroke:none;stroke-width:1.0;" width="214" x="5" y="5"/><text fill="#000000" font-family="sans-serif" font-size="14" font-weight="bold" lengthAdjust="spacing" textLength="204" x="10" y="24.5332">Study Center - Domain Model</text><!--MD5=[df38be88ccee13e832d6fafd6288a4ca]
class Test--><g id="elem_Test"><rect codeLine="4" fill="#F1F1F1" height="48" id="Test" rx="2.5" ry="2.5" style="stroke:#181818;stroke-width:0.5;" width="60" x="73.75" y="45.6094"/><ellipse cx="88.75" cy="61.6094" fill="#ADD1B2" rx="11" ry="11" style="stroke:#181818;stroke-width:1.0;"/><path d="M91.5156,57.4844 Q91.6719,57.2656 91.8594,57.1563 Q92.0469,57.0469 92.2656,57.0469 Q92.6406,57.0469 92.875,57.3125 Q93.1094,57.5625 93.1094,58.1719 L93.1094,59.625 Q93.1094,60.2344 92.875,60.5 Q92.6406,60.7656 92.2656,60.7656 Q91.9219,60.7656 91.7188,60.5625 Q91.5156,60.375 91.4063,59.8594 Q91.3594,59.5 91.1719,59.3125 Q90.8438,58.9375 90.2344,58.7188 Q89.625,58.5 89,58.5 Q88.2344,58.5 87.5938,58.8281 Q86.9688,59.1563 86.4688,59.9063 Q85.9844,60.6563 85.9844,61.6875 L85.9844,62.7813 Q85.9844,64.0156 86.875,64.8438 Q87.7656,65.6563 89.3594,65.6563 Q90.2969,65.6563 90.9531,65.4063 Q91.3438,65.25 91.7656,64.8125 Q92.0313,64.5469 92.1719,64.4688 Q92.3281,64.3906 92.5313,64.3906 Q92.8594,64.3906 93.1094,64.6563 Q93.375,64.9063 93.375,65.25 Q93.375,65.5938 93.0313,66 Q92.5313,66.5781 91.7344,66.9063 Q90.6563,67.3594 89.3594,67.3594 Q87.8438,67.3594 86.6406,66.7344 Q85.6563,66.2344 84.9688,65.1719 Q84.2813,64.0938 84.2813,62.8125 L84.2813,61.6563 Q84.2813,60.3281 84.8906,59.1875 Q85.5156,58.0313 86.6094,57.4219 Q87.7031,56.7969 88.9375,56.7969 Q89.6719,56.7969 90.3125,56.9688 Q90.9688,57.125 91.5156,57.4844 Z " fill="#000000"/><text fill="#000000" font-family="sans-serif" font-size="14" lengthAdjust="spacing" textLength="28" x="102.75" y="67.3379">Test</text><line style="stroke:#181818;stroke-width:0.5;" x1="74.75" x2="132.75" y1="77.6094" y2="77.6094"/><line style="stroke:#181818;stroke-width:0.5;" x1="74.75" x2="132.75" y1="85.6094" y2="85.6094"/></g><!--MD5=[fc7123defb831ecdd44b2d9bcef6cceb]
class Question--><g id="elem_Question"><rect codeLine="6" fill="#F1F1F1" height="100.8281" id="Question" rx="2.5" ry="2.5" style="stroke:#181818;stroke-width:0.5;" width="89" x="60.25" y="511.6094"/><ellipse cx="75.25" cy="527.6094" fill="#ADD1B2" rx="11" ry="11" style="stroke:#181818;stroke-width:1.0;"/><path d="M78.0156,523.4844 Q78.1719,523.2656 78.3594,523.1563 Q78.5469,523.0469 78.7656,523.0469 Q79.1406,523.0469 79.375,523.3125 Q79.6094,523.5625 79.6094,524.1719 L79.6094,525.625 Q79.6094,526.2344 79.375,526.5 Q79.1406,526.7656 78.7656,526.7656 Q78.4219,526.7656 78.2188,526.5625 Q78.0156,526.375 77.9063,525.8594 Q77.8594,525.5 77.6719,525.3125 Q77.3438,524.9375 76.7344,524.7188 Q76.125,524.5 75.5,524.5 Q74.7344,524.5 74.0938,524.8281 Q73.4688,525.1563 72.9688,525.9063 Q72.4844,526.6563 72.4844,527.6875 L72.4844,528.7813 Q72.4844,530.0156 73.375,530.8438 Q74.2656,531.6563 75.8594,531.6563 Q76.7969,531.6563 77.4531,531.4063 Q77.8438,531.25 78.2656,530.8125 Q78.5313,530.5469 78.6719,530.4688 Q78.8281,530.3906 79.0313,530.3906 Q79.3594,530.3906 79.6094,530.6563 Q79.875,530.9063 79.875,531.25 Q79.875,531.5938 79.5313,532 Q79.0313,532.5781 78.2344,532.9063 Q77.1563,533.3594 75.8594,533.3594 Q74.3438,533.3594 73.1406,532.7344 Q72.1563,532.2344 71.4688,531.1719 Q70.7813,530.0938 70.7813,528.8125 L70.7813,527.6563 Q70.7813,526.3281 71.3906,525.1875 Q72.0156,524.0313 73.1094,523.4219 Q74.2031,522.7969 75.4375,522.7969 Q76.1719,522.7969 76.8125,522.9688 Q77.4688,523.125 78.0156,523.4844 Z " fill="#000000"/><text fill="#000000" font-family="sans-serif" font-size="14" lengthAdjust="spacing" textLength="57" x="89.25" y="533.3379">Question</text><line style="stroke:#181818;stroke-width:0.5;" x1="61.25" x2="148.25" y1="543.6094" y2="543.6094"/><text fill="#000000" font-family="sans-serif" font-size="14" lengthAdjust="spacing" textLength="48" x="66.25" y="562.1426">number</text><text fill="#000000" font-family="sans-serif" font-size="14" lengthAdjust="spacing" textLength="22" x="66.25" y="579.752">text</text><text fill="#000000" font-family="sans-serif" font-size="14" lengthAdjust="spacing" textLength="27" x="66.25" y="597.3613">type</text><line style="stroke:#181818;stroke-width:0.5;" x1="61.25" x2="148.25" y1="604.4375" y2="604.4375"/></g><!--MD5=[d0da0a299942266ebd64acf2b2e95fa4]
class Subject--><g id="elem_Subject"><rect codeLine="12" fill="#F1F1F1" height="100.8281" id="Subject" rx="2.5" ry="2.5" style="stroke:#181818;stroke-width:0.5;" width="81" x="8.25" y="171.6094"/><ellipse cx="24.15" cy="187.6094" fill="#ADD1B2" rx="11" ry="11" style="stroke:#181818;stroke-width:1.0;"/><path d="M26.9156,183.4844 Q27.0719,183.2656 27.2594,183.1563 Q27.4469,183.0469 27.6656,183.0469 Q28.0406,183.0469 28.275,183.3125 Q28.5094,183.5625 28.5094,184.1719 L28.5094,185.625 Q28.5094,186.2344 28.275,186.5 Q28.0406,186.7656 27.6656,186.7656 Q27.3219,186.7656 27.1188,186.5625 Q26.9156,186.375 26.8063,185.8594 Q26.7594,185.5 26.5719,185.3125 Q26.2438,184.9375 25.6344,184.7188 Q25.025,184.5 24.4,184.5 Q23.6344,184.5 22.9938,184.8281 Q22.3688,185.1563 21.8688,185.9063 Q21.3844,186.6563 21.3844,187.6875 L21.3844,188.7813 Q21.3844,190.0156 22.275,190.8438 Q23.1656,191.6563 24.7594,191.6563 Q25.6969,191.6563 26.3531,191.4063 Q26.7438,191.25 27.1656,190.8125 Q27.4313,190.5469 27.5719,190.4688 Q27.7281,190.3906 27.9313,190.3906 Q28.2594,190.3906 28.5094,190.6563 Q28.775,190.9063 28.775,191.25 Q28.775,191.5938 28.4313,192 Q27.9313,192.5781 27.1344,192.9063 Q26.0563,193.3594 24.7594,193.3594 Q23.2438,193.3594 22.0406,192.7344 Q21.0563,192.2344 20.3688,191.1719 Q19.6813,190.0938 19.6813,188.8125 L19.6813,187.6563 Q19.6813,186.3281 20.2906,185.1875 Q20.9156,184.0313 22.0094,183.4219 Q23.1031,182.7969 24.3375,182.7969 Q25.0719,182.7969 25.7125,182.9688 Q26.3688,183.125 26.9156,183.4844 Z " fill="#000000"/><text fill="#000000" font-family="sans-serif" font-size="14" lengthAdjust="spacing" textLength="47" x="38.35" y="193.3379">Subject</text><line style="stroke:#181818;stroke-width:0.5;" x1="9.25" x2="88.25" y1="203.6094" y2="203.6094"/><text fill="#000000" font-family="sans-serif" font-size="14" lengthAdjust="spacing" textLength="31" x="14.25" y="222.1426">code</text><text fill="#000000" font-family="sans-serif" font-size="14" lengthAdjust="spacing" textLength="35" x="14.25" y="239.752">name</text><text fill="#000000" font-family="sans-serif" font-size="14" lengthAdjust="spacing" textLength="69" x="14.25" y="257.3613">description</text><line style="stroke:#181818;stroke-width:0.5;" x1="9.25" x2="88.25" y1="264.4375" y2="264.4375"/></g><!--MD5=[a96594a83e2ecdc78cbf17c2ddf01934]
class Category--><g id="elem_Category"><rect codeLine="18" fill="#F1F1F1" height="83.2188" id="Category" rx="2.5" ry="2.5" style="stroke:#181818;stroke-width:0.5;" width="90" x="59.75" y="350.6094"/><ellipse cx="74.75" cy="366.6094" fill="#ADD1B2" rx="11" ry="11" style="stroke:#181818;stroke-width:1.0;"/><path d="M77.5156,362.4844 Q77.6719,362.2656 77.8594,362.1563 Q78.0469,362.0469 78.2656,362.0469 Q78.6406,362.0469 78.875,362.3125 Q79.1094,362.5625 79.1094,363.1719 L79.1094,364.625 Q79.1094,365.2344 78.875,365.5 Q78.6406,365.7656 78.2656,365.7656 Q77.9219,365.7656 77.7188,365.5625 Q77.5156,365.375 77.4063,364.8594 Q77.3594,364.5 77.1719,364.3125 Q76.8438,363.9375 76.2344,363.7188 Q75.625,363.5 75,363.5 Q74.2344,363.5 73.5938,363.8281 Q72.9688,364.1563 72.4688,364.9063 Q71.9844,365.6563 71.9844,366.6875 L71.9844,367.7813 Q71.9844,369.0156 72.875,369.8438 Q73.7656,370.6563 75.3594,370.6563 Q76.2969,370.6563 76.9531,370.4063 Q77.3438,370.25 77.7656,369.8125 Q78.0313,369.5469 78.1719,369.4688 Q78.3281,369.3906 78.5313,369.3906 Q78.8594,369.3906 79.1094,369.6563 Q79.375,369.9063 79.375,370.25 Q79.375,370.5938 79.0313,371 Q78.5313,371.5781 77.7344,371.9063 Q76.6563,372.3594 75.3594,372.3594 Q73.8438,372.3594 72.6406,371.7344 Q71.6563,371.2344 70.9688,370.1719 Q70.2813,369.0938 70.2813,367.8125 L70.2813,366.6563 Q70.2813,365.3281 70.8906,364.1875 Q71.5156,363.0313 72.6094,362.4219 Q73.7031,361.7969 74.9375,361.7969 Q75.6719,361.7969 76.3125,361.9688 Q76.9688,362.125 77.5156,362.4844 Z " fill="#000000"/><text fill="#000000" font-family="sans-serif" font-size="14" lengthAdjust="spacing" textLength="58" x="88.75" y="372.3379">Category</text><line style="stroke:#181818;stroke-width:0.5;" x1="60.75" x2="148.75" y1="382.6094" y2="382.6094"/><text fill="#000000" font-family="sans-serif" font-size="14" lengthAdjust="spacing" textLength="35" x="65.75" y="401.1426">name</text><text fill="#000000" font-family="sans-serif" font-size="14" lengthAdjust="spacing" textLength="69" x="65.75" y="418.752">description</text><line style="stroke:#181818;stroke-width:0.5;" x1="60.75" x2="148.75" y1="425.8281" y2="425.8281"/></g><!--MD5=[a664183d67e688f54988404f94273920]
link Subject to Category--><g id="link_Subject_Category"><path codeLine="25" d="M49.28,272.7094 C50.65,288.3794 53.41,305.5294 58.75,320.6094 C62.36,330.8094 67.72,340.9994 73.53,350.3394 " fill="none" id="Subject-Category" style="stroke:#181818;stroke-width:1.0;"/><polygon fill="#000000" points="65.2408,316.5577,65.3491,307.0478,59.7386,308.8004,65.2408,316.5577" style="stroke:#000000;stroke-width:1.0;"/><text fill="#000000" font-family="sans-serif" font-size="13" lengthAdjust="spacing" textLength="60" x="72.75" y="317.1045">addresses</text><text fill="#000000" font-family="sans-serif" font-size="13" lengthAdjust="spacing" textLength="7" x="41.8809" y="294.114">1</text><text fill="#000000" font-family="sans-serif" font-size="13" lengthAdjust="spacing" textLength="5" x="62.9451" y="339.6023">*</text></g><!--MD5=[1a1b676d11de0d3c9f1436eb98d48270]
link Category to Question--><g id="link_Category_Question"><path codeLine="27" d="M104.75,433.7794 C104.75,457.1794 104.75,486.7594 104.75,511.5194 " fill="none" id="Category-Question" style="stroke:#181818;stroke-width:1.0;"/><polygon fill="#000000" points="109.75,477.7852,112.6889,468.7401,106.8111,468.7401,109.75,477.7852" style="stroke:#000000;stroke-width:1.0;"/><text fill="#000000" font-family="sans-serif" font-size="13" lengthAdjust="spacing" textLength="49" x="118.75" y="478.1045">contains</text><text fill="#000000" font-family="sans-serif" font-size="13" lengthAdjust="spacing" textLength="7" x="97.1922" y="455.2012">1</text><text fill="#000000" font-family="sans-serif" font-size="13" lengthAdjust="spacing" textLength="5" x="99.3984" y="500.8121">*</text></g><!--MD5=[3f4bbcb7bdd768625255400fa2143bca]
link Test to Subject--><g id="link_Test_Subject"><path codeLine="29" d="M90.08,93.8394 C85.12,102.9194 79.75,113.5494 75.75,123.6094 C69.69,138.8694 64.45,155.9894 60.25,171.5794 " fill="none" id="Test-Subject" style="stroke:#181818;stroke-width:1.0;"/><polygon fill="#000000" points="82.5412,128.117,76.557,135.5089,82.0447,137.6146,82.5412,128.117" style="stroke:#000000;stroke-width:1.0;"/><text fill="#000000" font-family="sans-serif" font-size="13" lengthAdjust="spacing" textLength="43" x="89.75" y="138.1045">creates</text><text fill="#000000" font-family="sans-serif" font-size="13" lengthAdjust="spacing" textLength="5" x="81.1386" y="115.2334">*</text><text fill="#000000" font-family="sans-serif" font-size="13" lengthAdjust="spacing" textLength="7" x="54.375" y="160.8805">1</text></g><!--MD5=[5e9be7b4a6f56d1e0b87826e798c842a]
link Test to Category--><g id="link_Test_Category"><path codeLine="30" d="M122.63,93.7194 C128.7,102.5294 134.64,113.0094 137.75,123.6094 C162.38,207.6294 156.76,235.1394 137.75,320.6094 C135.52,330.6394 131.71,340.9194 127.44,350.4294 " fill="none" id="Test-Category" style="stroke:#181818;stroke-width:1.0;"/><polygon fill="#000000" points="159.8437,227.2843,162.6126,218.1857,156.7358,218.2958,159.8437,227.2843" style="stroke:#000000;stroke-width:1.0;"/><text fill="#000000" font-family="sans-serif" font-size="13" lengthAdjust="spacing" textLength="60" x="168.75" y="227.6045">addresses</text><text fill="#000000" font-family="sans-serif" font-size="13" lengthAdjust="spacing" textLength="5" x="121.6226" y="115.0842">*</text><text fill="#000000" font-family="sans-serif" font-size="13" lengthAdjust="spacing" textLength="20" x="109.5418" y="339.7072">1..*</text></g><!--MD5=[81e744e1f9ae3c7eb3346ffebb633291]
@startuml

title "Study Center - Domain Model"

class Test

class Question{
    number
    text
    type
}

class Subject{
    code
    name
    description
}

class Category{
    name
    description
}

'Relationships

Subject "1" - - "*" Category: > addresses

Category "1" - - "*" Question: > contains

Test "*" - - "1" Subject: < creates 
Test "*" - - "1..*" Category: > addresses

@enduml

@startuml

title "Study Center - Domain Model"

class Test

class Question{
    number
    text
    type
}

class Subject{
    code
    name
    description
}

class Category{
    name
    description
}


Subject "1" - - "*" Category: > addresses

Category "1" - - "*" Question: > contains

Test "*" - - "1" Subject: < creates 
Test "*" - - "1..*" Category: > addresses

@enduml

PlantUML version 1.2022.7(Mon Aug 22 18:01:30 WEST 2022)
(GPL source distribution)
Java Runtime: Java(TM) SE Runtime Environment
JVM: Java HotSpot(TM) 64-Bit Server VM
Default Encoding: UTF-8
Language: pt
Country: PT
--></g></svg>